<svg width="20" height="20" viewBox="0 0 20 20" fill="none" xmlns="http://www.w3.org/2000/svg">
<path d="M9.99978 2.49995C10.1098 2.49995 10.2189 2.49995 10.3273 2.49995C9.25673 3.49471 8.5686 4.83316 8.38252 6.28264C8.19644 7.73212 8.52416 9.20098 9.30872 10.4339C10.0933 11.6668 11.2851 12.5858 12.6769 13.0312C14.0688 13.4765 15.5727 13.4201 16.9273 12.8716C16.4062 14.1254 15.5546 15.2141 14.4633 16.0218C13.3719 16.8295 12.0818 17.3258 10.7305 17.4578C9.37925 17.5897 8.0175 17.3524 6.79052 16.7711C5.56354 16.1898 4.51737 15.2864 3.7636 14.1571C3.00983 13.0279 2.57674 11.7152 2.51051 10.3591C2.44429 9.003 2.74743 7.65437 3.38759 6.45705C4.02774 5.25973 4.98091 4.25864 6.14541 3.56056C7.30991 2.86249 8.64207 2.49361 9.99978 2.49329V2.49995Z" stroke="#FAFAFA" stroke-width="1.5" stroke-linecap="round" stroke-linejoin="round"/>
</svg>
